<?xml version="1.0" encoding="iso-8859-1"?>
<!-- Generator: Adobe Illustrator 20.0.0, SVG Export Plug-In . SVG Version: 6.00 Build 0)  -->
<svg version="1.1" id="Layer_1" xmlns="http://www.w3.org/2000/svg" xmlns:xlink="http://www.w3.org/1999/xlink" x="0px" y="0px"
	 viewBox="0 0 463.057 426.667" style="enable-background:new 0 0 463.057 426.667;" xml:space="preserve">
<rect x="4.35" y="118.515" style="fill:#0BE5F5;" width="142.208" height="189.611"/>
<polygon style="fill:#0BE5F5;" points="51.753,213.333 265.086,426.667 265.086,0 "/>
<path style="fill:#0BE5F5;" d="M317.481,267.714l-21.749-21.754c8.712-8.712,13.507-20.298,13.507-32.623
	s-4.797-23.911-13.507-32.635l21.749-21.749C332.003,173.481,340,192.789,340,213.337
	C340.001,233.873,332.004,253.186,317.481,267.714z"/>
<path style="fill:#0BE5F5;" d="M360.944,311.181l-21.749-21.749c20.362-20.369,31.567-47.394,31.567-76.097
	c0-28.708-11.21-55.728-31.567-76.097l21.749-21.754c26.18,26.18,40.585,60.924,40.585,97.851
	C401.529,250.252,387.122,285.003,360.944,311.181z"/>
<path style="fill:#0BE5F5;" d="M404.429,354.667l-21.749-21.761c31.991-31.991,49.615-74.455,49.615-119.571
	s-17.624-87.591-49.615-119.582L404.429,72c37.814,37.807,58.629,87.997,58.629,141.337
	C463.057,266.663,442.243,316.865,404.429,354.667z"/>
</svg>
