<?xml version="1.0" encoding="iso-8859-1"?>
<!-- Generator: Adobe Illustrator 20.0.0, SVG Export Plug-In . SVG Version: 6.00 Build 0)  -->
<svg version="1.1" id="Layer_1" xmlns="http://www.w3.org/2000/svg" xmlns:xlink="http://www.w3.org/1999/xlink" x="0px" y="0px"
	 viewBox="0 0 481 130.223" style="enable-background:new 0 0 481 130.223;" xml:space="preserve">
<g>
	<path style="fill:#FFFFFF;" d="M169.354,76.476c0,5.362-1.972,9.661-5.918,12.898s-8.952,4.855-15.022,4.855
		c-4.046,0-8.262-0.725-12.646-2.175c-4.385-1.449-8.329-3.591-11.836-6.425l6.677-9.509c5.664,4.386,11.7,6.575,18.107,6.575
		c1.955,0,3.505-0.387,4.653-1.163c1.146-0.774,1.72-1.804,1.72-3.086c0-1.28-0.794-2.46-2.377-3.54
		c-1.585-1.078-3.879-2.09-6.878-3.035c-3.002-0.944-5.295-1.753-6.878-2.427c-1.585-0.674-3.389-1.653-5.412-2.934
		c-4.114-2.563-6.171-6.356-6.171-11.381c0-5.023,2.023-9.12,6.07-12.29c4.046-3.169,9.272-4.755,15.679-4.755
		c6.407,0,12.812,2.159,19.22,6.473l-5.664,10.117c-4.722-3.238-9.425-4.856-14.112-4.856c-4.688,0-7.031,1.282-7.031,3.845
		c0,1.416,0.741,2.529,2.226,3.337c1.482,0.81,3.946,1.755,7.384,2.833c3.44,1.079,5.883,1.906,7.334,2.478
		c1.449,0.574,3.186,1.468,5.211,2.681C167.465,67.288,169.354,71.115,169.354,76.476z"/>
	<path style="fill:#FFFFFF;" d="M211.951,38.086c6.339,0,11.988,2.648,16.943,7.941c4.957,5.294,7.436,11.953,7.436,19.979
		s-2.479,14.736-7.436,20.131c-4.956,5.396-10.757,8.093-17.399,8.093c-6.644,0-11.988-2.664-16.034-7.991v26.807h-15.175V38.996
		h15.175v6.07C200.115,40.413,205.611,38.086,211.951,38.086z M195.26,66.258c0,4.418,1.23,8.027,3.692,10.824
		c2.461,2.8,5.445,4.199,8.952,4.199c3.507,0,6.575-1.399,9.206-4.199c2.63-2.797,3.946-6.388,3.946-10.773
		c0-4.383-1.281-8.059-3.844-11.025c-2.564-2.967-5.633-4.451-9.206-4.451c-3.575,0-6.593,1.468-9.054,4.4
		C196.489,58.167,195.26,61.842,195.26,66.258z"/>
	<path style="fill:#FFFFFF;" d="M261.994,93.421h-15.175V38.996h15.175V93.421z"/>
	<path style="fill:#FFFFFF;" d="M292.937,49.922v24.379c0,2.091,0.54,3.727,1.618,4.906c1.078,1.18,2.36,1.771,3.845,1.771
		c2.832,0,5.225-1.281,7.182-3.845l5.664,10.623c-4.721,4.317-9.696,6.473-14.92,6.473c-5.227,0-9.646-1.719-13.252-5.159
		c-3.608-3.44-5.412-8.125-5.412-14.061V49.922h-6.374V38.996h6.374V22.71h15.274v16.286h13.15v10.926H292.937z"/>
	<path style="fill:#FFFFFF;" d="M335.807,35.861v3.642h13.15v10.925h-13.15v42.994h-15.274V50.428h-6.374V39.503h6.374v-3.338
		c0-5.934,1.803-10.637,5.412-14.112c3.606-3.473,8.094-5.209,13.454-5.209c5.362,0,10.232,2.022,14.618,6.069l-5.463,10.217
		c-2.226-2.562-4.688-3.844-7.384-3.844c-1.552,0-2.833,0.556-3.844,1.669C336.314,32.067,335.807,33.703,335.807,35.861z"/>
	<path style="fill:#FFFFFF;" d="M375.512,93.421h-15.175V38.996h15.175V93.421z"/>
	<path style="fill:#FFFFFF;" d="M417.827,52.35c-4.519,0-7.89,1.602-10.116,4.804c-2.226,3.203-3.338,7.435-3.338,12.695v23.57
		h-15.175V38.996h15.175v7.182c1.955-2.226,4.4-4.112,7.334-5.664c2.934-1.551,5.918-2.36,8.952-2.428l0.101,14.264h-2.934V52.35z"
		/>
	<path style="fill:#FFFFFF;" d="M476.55,85.53c-6.137,5.801-13.337,8.699-21.597,8.699c-8.262,0-15.09-2.544-20.485-7.637
		c-5.396-5.092-8.094-11.919-8.094-20.485c0-8.564,2.747-15.376,8.244-20.434c5.497-5.059,11.988-7.587,19.473-7.587
		c7.485,0,13.842,2.261,19.068,6.778c5.226,4.519,7.84,10.723,7.84,18.614v8.093h-39.654c0.471,2.969,2.023,5.396,4.654,7.283
		c2.63,1.888,5.596,2.832,8.903,2.832c5.326,0,9.711-1.786,13.15-5.361L476.55,85.53z M461.982,53.261
		c-2.091-1.753-4.637-2.63-7.638-2.63s-5.75,0.91-8.244,2.731c-2.496,1.821-3.946,4.283-4.35,7.384h23.874
		C465.285,57.509,464.072,55.015,461.982,53.261z"/>
</g>
<path style="fill:#FFFFFF;" d="M248.716,30.545c-1.547-1.548-2.321-3.444-2.321-5.691c0-2.244,0.774-4.143,2.321-5.69
	c1.548-1.548,3.444-2.321,5.691-2.321c2.245,0,4.143,0.773,5.691,2.321c1.548,1.547,2.321,3.445,2.321,5.69
	c0,2.247-0.773,4.143-2.321,5.691s-3.445,2.321-5.691,2.321C252.16,32.866,250.264,32.092,248.716,30.545z"/>
<path style="fill:#FFFFFF;" d="M362.235,30.545c-1.547-1.548-2.321-3.444-2.321-5.691c0-2.244,0.774-4.143,2.321-5.69
	c1.548-1.548,3.444-2.321,5.691-2.321c2.245,0,4.143,0.773,5.691,2.321c1.548,1.547,2.321,3.445,2.321,5.69
	c0,2.247-0.773,4.143-2.321,5.691s-3.445,2.321-5.691,2.321C365.679,32.866,363.782,32.092,362.235,30.545z"/>
<linearGradient id="SVGID_1_" gradientUnits="userSpaceOnUse" x1="15.615" y1="106.524" x2="91.6339" y2="30.5051" gradientTransform="matrix(1 0 0 -1 0 132)">
	<stop  offset="0" style="stop-color:#00FFFF"/>
	<stop  offset="1" style="stop-color:#1FB8E5"/>
</linearGradient>
<path style="fill:url(#SVGID_1_);" d="M95.661,65.638c-1.398-9.854-6.09-18.534-14.048-25.961
	C69.836,28.688,65.747,24.747,63.247,20.12C59.942,14,61.454,5.208,67.338,0.918c0.175-0.128,0.258-0.358,0.629-0.897
	c-1.538,0-2.773-0.052-4.001,0.008c-9.461,0.467-16.502,4.674-20.713,12.088c-2.8,4.93-4.436,10.393-6.624,15.608
	c-1.233,2.939-2.078,6.11-3.891,8.731c-3.538,5.117-11.144,4.62-14.254-0.729c-0.693-1.191-1.2-2.585-1.302-3.916
	c-0.201-2.624-0.059-5.269-0.059-7.843C2.84,40.646-3.897,59.247,2.317,80.503c5.712,19.538,23.993,32.112,39.06,32.112
	c1.227,0,11.087-0.032,12.281-0.08c-2.367,13.273-8.029,15.202-11.104,17.687c5.265,0,10.252-1.496,15.472-3.746
	c7.929-3.417,38.04-16.038,38.04-49.305C96.283,72.899,96.192,69.386,95.661,65.638z M24.442,79.852
	c-4.286,0-7.761-3.475-7.761-7.761s3.475-7.761,7.761-7.761s7.761,3.475,7.761,7.761S28.728,79.852,24.442,79.852z M47.725,79.852
	c-4.286,0-7.761-3.475-7.761-7.761s3.475-7.761,7.761-7.761s7.761,3.475,7.761,7.761S52.012,79.852,47.725,79.852z M71.009,79.852
	c-4.286,0-7.761-3.475-7.761-7.761s3.475-7.761,7.761-7.761s7.761,3.475,7.761,7.761C78.77,76.377,75.295,79.852,71.009,79.852z"/>
<g>
	<path style="fill:#69FFF7;" d="M31.333,68.531c0.552,1.067,0.87,2.275,0.87,3.56c0,4.286-3.475,7.761-7.761,7.761
		c-2.138,0-4.074-0.865-5.478-2.264c1.291,2.494,3.89,4.201,6.892,4.201c4.286,0,7.761-3.475,7.761-7.761
		C33.616,71.88,32.744,69.936,31.333,68.531z"/>
	<path style="fill:#69FFF7;" d="M77.9,68.531c0.552,1.067,0.87,2.275,0.87,3.56c0,4.286-3.475,7.761-7.761,7.761
		c-2.138,0-4.074-0.865-5.478-2.264c1.291,2.494,3.89,4.201,6.892,4.201c4.286,0,7.761-3.475,7.761-7.761
		C80.183,71.88,79.31,69.936,77.9,68.531z"/>
	<path style="fill:#69FFF7;" d="M54.617,68.531c0.552,1.067,0.87,2.275,0.87,3.56c0,4.286-3.475,7.761-7.761,7.761
		c-2.138,0-4.074-0.865-5.478-2.264c1.291,2.494,3.89,4.201,6.892,4.201c4.286,0,7.761-3.475,7.761-7.761
		C56.9,71.88,56.027,69.936,54.617,68.531z"/>
</g>
</svg>
