<?xml version="1.0" encoding="iso-8859-1"?>
<!-- Generator: Adobe Illustrator 20.0.0, SVG Export Plug-In . SVG Version: 6.00 Build 0)  -->
<svg version="1.1" id="Layer_1" xmlns="http://www.w3.org/2000/svg" xmlns:xlink="http://www.w3.org/1999/xlink" x="0px" y="0px"
	 viewBox="0 0 513 130.223" style="enable-background:new 0 0 513 130.223;" xml:space="preserve">
<linearGradient id="SVGID_1_" gradientUnits="userSpaceOnUse" x1="15.615" y1="106.524" x2="91.6339" y2="30.5051" gradientTransform="matrix(1 0 0 -1 0 132)">
	<stop  offset="0" style="stop-color:#00FFFF"/>
	<stop  offset="1" style="stop-color:#1FB8E5"/>
</linearGradient>
<path style="fill:url(#SVGID_1_);" d="M95.661,65.638c-1.398-9.854-6.09-18.534-14.048-25.961
	C69.836,28.688,65.747,24.747,63.247,20.12C59.942,14,61.454,5.208,67.338,0.918c0.175-0.128,0.258-0.358,0.629-0.897
	c-1.538,0-2.773-0.052-4.001,0.008c-9.461,0.467-16.502,4.674-20.713,12.088c-2.8,4.93-4.436,10.393-6.624,15.608
	c-1.233,2.939-2.078,6.11-3.891,8.731c-3.538,5.117-11.144,4.62-14.254-0.729c-0.693-1.191-1.2-2.585-1.302-3.916
	c-0.201-2.624-0.059-5.269-0.059-7.843C2.84,40.646-3.897,59.247,2.317,80.503c5.712,19.538,23.993,32.112,39.06,32.112
	c1.227,0,11.087-0.032,12.281-0.08c-2.367,13.273-8.029,15.202-11.104,17.687c5.265,0,10.252-1.496,15.472-3.746
	c7.929-3.417,38.04-16.038,38.04-49.305C96.283,72.899,96.192,69.386,95.661,65.638z M24.442,79.852
	c-4.286,0-7.761-3.475-7.761-7.761s3.475-7.761,7.761-7.761s7.761,3.475,7.761,7.761S28.728,79.852,24.442,79.852z M47.725,79.852
	c-4.286,0-7.761-3.475-7.761-7.761s3.475-7.761,7.761-7.761s7.761,3.475,7.761,7.761S52.012,79.852,47.725,79.852z M71.009,79.852
	c-4.286,0-7.761-3.475-7.761-7.761s3.475-7.761,7.761-7.761s7.761,3.475,7.761,7.761C78.77,76.377,75.295,79.852,71.009,79.852z"/>
<g>
	<path style="fill:#69FFF7;" d="M31.333,68.531c0.552,1.067,0.87,2.275,0.87,3.56c0,4.286-3.475,7.761-7.761,7.761
		c-2.138,0-4.074-0.865-5.478-2.264c1.291,2.494,3.89,4.201,6.892,4.201c4.286,0,7.761-3.475,7.761-7.761
		C33.616,71.88,32.744,69.936,31.333,68.531z"/>
	<path style="fill:#69FFF7;" d="M77.9,68.531c0.552,1.067,0.87,2.275,0.87,3.56c0,4.286-3.475,7.761-7.761,7.761
		c-2.138,0-4.074-0.865-5.478-2.264c1.291,2.494,3.89,4.201,6.892,4.201c4.286,0,7.761-3.475,7.761-7.761
		C80.183,71.88,79.31,69.936,77.9,68.531z"/>
	<path style="fill:#69FFF7;" d="M54.617,68.531c0.552,1.067,0.87,2.275,0.87,3.56c0,4.286-3.475,7.761-7.761,7.761
		c-2.138,0-4.074-0.865-5.478-2.264c1.291,2.494,3.89,4.201,6.892,4.201c4.286,0,7.761-3.475,7.761-7.761
		C56.9,71.88,56.027,69.936,54.617,68.531z"/>
</g>
<g>
	<path style="fill:#FFFFFF;" d="M172.13,76.214c0,5.453-2.006,9.827-6.018,13.119c-4.014,3.292-9.106,4.939-15.279,4.939
		c-4.116,0-8.403-0.739-12.861-2.213c-4.461-1.474-8.473-3.652-12.039-6.532l6.791-9.672c5.762,4.459,11.898,6.688,18.416,6.688
		c1.988,0,3.566-0.394,4.733-1.183c1.166-0.788,1.749-1.835,1.749-3.139c0-1.302-0.806-2.503-2.418-3.601
		c-1.612-1.096-3.945-2.125-6.996-3.087c-3.053-0.958-5.385-1.782-6.996-2.468c-1.613-0.685-3.447-1.68-5.504-2.984
		c-4.186-2.606-6.277-6.465-6.277-11.575s2.058-9.277,6.174-12.501c4.116-3.223,9.43-4.836,15.947-4.836s13.031,2.196,19.549,6.585
		l-5.762,10.288c-4.802-3.292-9.586-4.938-14.354-4.938c-4.767,0-7.15,1.304-7.15,3.909c0,1.441,0.754,2.573,2.263,3.395
		c1.507,0.824,4.012,1.785,7.511,2.881c3.498,1.099,5.984,1.939,7.459,2.521c1.474,0.584,3.242,1.493,5.299,2.726
		C170.209,66.87,172.13,70.762,172.13,76.214z"/>
	<path style="fill:#FFFFFF;" d="M214.425,37.168c6.448,0,12.193,2.693,17.234,8.076c5.041,5.386,7.562,12.159,7.562,20.321
		c0,8.164-2.521,14.987-7.562,20.475c-5.041,5.488-10.941,8.231-17.697,8.231c-6.757,0-12.192-2.709-16.308-8.129v27.266h-15.432
		V38.095h15.432v6.173C202.387,39.535,207.977,37.168,214.425,37.168z M197.448,65.823c0,4.494,1.252,8.164,3.756,11.009
		c2.503,2.848,5.538,4.27,9.105,4.27c3.567,0,6.688-1.423,9.363-4.27c2.676-2.845,4.014-6.498,4.014-10.957
		c0-4.458-1.305-8.195-3.911-11.215c-2.607-3.017-5.727-4.527-9.363-4.527s-6.705,1.493-9.208,4.475
		C198.7,57.591,197.448,61.332,197.448,65.823z"/>
	<path style="fill:#FFFFFF;" d="M250.147,31.047c-1.749-1.749-2.623-3.892-2.623-6.43c0-2.537,0.874-4.681,2.623-6.43
		c1.749-1.749,3.892-2.624,6.43-2.624c2.537,0,4.681,0.875,6.43,2.624c1.749,1.749,2.624,3.893,2.624,6.43
		c0,2.538-0.875,4.681-2.624,6.43c-1.749,1.749-3.893,2.623-6.43,2.623C254.039,33.67,251.896,32.796,250.147,31.047z
		 M264.294,93.448h-15.432V38.095h15.432V93.448z"/>
	<path style="fill:#FFFFFF;" d="M294.737,49.207v24.795c0,2.127,0.549,3.792,1.646,4.991c1.096,1.2,2.401,1.801,3.909,1.801
		c2.882,0,5.316-1.302,7.306-3.911l5.762,10.804c-4.802,4.391-9.861,6.585-15.176,6.585c-5.316,0-9.81-1.749-13.478-5.247
		c-3.67-3.498-5.504-8.265-5.504-14.302V49.207h-6.482V38.095h6.482V21.53h15.535v16.565h13.375v11.112H294.737z"/>
	<path style="fill:#FFFFFF;" d="M337.311,34.905v3.704h13.375v11.112h-13.375v43.727h-15.535V49.721h-6.482V38.609h6.482v-3.395
		c0-6.035,1.834-10.82,5.504-14.354c3.669-3.531,8.231-5.299,13.685-5.299c5.452,0,10.407,2.058,14.867,6.174l-5.555,10.391
		c-2.263-2.606-4.769-3.909-7.511-3.909c-1.579,0-2.881,0.566-3.911,1.698C337.825,31.047,337.311,32.71,337.311,34.905z"/>
	<path style="fill:#FFFFFF;" d="M371.088,115.261c-5.419,0-10.53-2.196-15.331-6.585l6.996-11.421
		c2.607,2.537,5.282,3.808,8.026,3.808c1.44,0,2.675-0.705,3.703-2.109c1.03-1.407,1.544-2.899,1.544-4.476
		s-7.135-20.372-21.401-56.382h16.462l13.478,34.467l13.478-34.467h16.462l-25.722,65.23c-1.51,3.772-3.859,6.704-7.048,8.797
		C378.547,114.214,374.997,115.261,371.088,115.261z"/>
	<path style="fill:#FFFFFF;" d="M449.777,51.675c-4.597,0-8.026,1.63-10.29,4.888c-2.263,3.259-3.395,7.562-3.395,12.912v23.973
		H420.66V38.095h15.432v7.304c1.988-2.263,4.475-4.183,7.459-5.762c2.984-1.577,6.019-2.4,9.106-2.47l0.103,14.507H449.777z"/>
	<path style="fill:#FFFFFF;" d="M508.472,85.423c-6.241,5.899-13.564,8.849-21.966,8.849c-8.403,0-15.348-2.589-20.834-7.768
		c-5.489-5.178-8.231-12.123-8.231-20.834s2.794-15.64,8.384-20.784c5.59-5.144,12.193-7.717,19.807-7.717
		s14.077,2.299,19.393,6.893C510.34,48.658,513,54.968,513,62.993v8.231h-40.332c0.479,3.02,2.057,5.488,4.733,7.407
		c2.674,1.921,5.691,2.881,9.053,2.881c5.418,0,9.877-1.817,13.375-5.452L508.472,85.423z M493.657,52.602
		c-2.127-1.783-4.717-2.676-7.768-2.676c-3.053,0-5.849,0.927-8.386,2.779c-2.538,1.852-4.012,4.356-4.424,7.511h24.281
		C497.016,56.922,495.782,54.387,493.657,52.602z"/>
</g>
</svg>
